<svg width="24" height="27" viewBox="0 0 24 27" fill="none" xmlns="http://www.w3.org/2000/svg">
<g opacity="0.4">
<path fill-rule="evenodd" clip-rule="evenodd" d="M16.4109 3.04883L16.4119 3.87434C19.1665 4.11209 20.9862 6.17919 20.9891 9.34918L21 18.628C21.0039 22.0842 19.0322 24.2107 15.8718 24.2162L8.15188 24.2272C5.01119 24.2316 3.01482 22.0544 3.01087 18.5884L3.00001 9.41852C2.99606 6.22762 4.75153 4.16603 7.50617 3.88755L7.50518 3.06203C7.5042 2.57773 7.83001 2.2134 8.26444 2.2134C8.69886 2.2123 9.02468 2.57553 9.02567 3.05983L9.02666 3.83032L14.8914 3.82151L14.8904 3.05103C14.8894 2.56672 15.2152 2.2035 15.6497 2.2024C16.0742 2.20129 16.4099 2.56452 16.4109 3.04883ZM4.52146 9.75863L19.4696 9.73662V9.35137C19.4272 6.98489 18.349 5.74331 16.4138 5.5584L16.4148 6.40593C16.4148 6.87922 16.0801 7.25456 15.6556 7.25456C15.2211 7.25566 14.8943 6.88142 14.8943 6.40813L14.8933 5.51657L9.02862 5.52537L9.0296 6.41583C9.0296 6.89023 8.70477 7.26446 8.27035 7.26446C7.83592 7.26557 7.50912 6.89243 7.50912 6.41803L7.50813 5.5705C5.58284 5.78294 4.51751 7.02892 4.52048 9.41631L4.52146 9.75863ZM15.2399 14.7613V14.7734C15.2498 15.2797 15.625 15.6638 16.0801 15.6528C16.5244 15.6407 16.8789 15.2214 16.869 14.715C16.8483 14.2307 16.4918 13.8356 16.0485 13.8367C15.5943 13.8477 15.2389 14.2549 15.2399 14.7613ZM16.0554 19.7034C15.6013 19.6924 15.235 19.2752 15.234 18.7689C15.2241 18.2626 15.5884 17.8432 16.0426 17.8311H16.0525C16.5165 17.8311 16.8927 18.2483 16.8927 18.7656C16.8937 19.2829 16.5185 19.7023 16.0554 19.7034ZM11.1721 14.7789C11.1919 15.2852 11.568 15.6803 12.0222 15.6583C12.4665 15.6352 12.821 15.2169 12.8012 14.7106C12.7903 14.2153 12.425 13.8301 11.9807 13.8312C11.5266 13.8532 11.1711 14.2726 11.1721 14.7789ZM12.0261 19.6538C11.572 19.6759 11.1968 19.2807 11.176 18.7744C11.176 18.2681 11.5305 17.8498 11.9847 17.8267C12.429 17.8256 12.7953 18.2108 12.8051 18.705C12.8259 19.2125 12.4704 19.6307 12.0261 19.6538ZM7.1043 14.8174C7.12405 15.3237 7.50022 15.72 7.95439 15.6969C8.39869 15.6748 8.75314 15.2555 8.73241 14.7492C8.72253 14.2538 8.35722 13.8686 7.91194 13.8697C7.45777 13.8917 7.10332 14.3111 7.1043 14.8174ZM7.95836 19.6593C7.50419 19.6825 7.12901 19.2862 7.10827 18.7799C7.10728 18.2736 7.46272 17.8542 7.91689 17.8322C8.36119 17.8311 8.72749 18.2163 8.73736 18.7117C8.7581 19.218 8.40365 19.6373 7.95836 19.6593Z" fill="#030229"/>
</g>
</svg>
