<svg width="36" height="36" viewBox="0 0 36 36" fill="none" xmlns="http://www.w3.org/2000/svg">
<g clip-path="url(#clip0_2501_2262)">
<path d="M22.2801 17.2997L10.4556 15.1997V30.7166C10.4556 31.4252 11.0264 31.9997 11.7305 31.9997H32.1341C32.8382 31.9997 33.4091 31.4252 33.4091 30.7166V24.9997L22.2801 17.2997Z" fill="#185C37"/>
<path d="M22.2801 4H11.7305C11.0264 4 10.4556 4.57446 10.4556 5.2831V11L22.2801 18L28.5401 20.1L33.4091 18V11L22.2801 4Z" fill="#21A366"/>
<path d="M10.4556 11H22.2801V18H10.4556V11Z" fill="#107C41"/>
<path opacity="0.1" d="M18.9185 9.60059H10.4556V27.1006H18.9185C19.6216 27.0983 20.1911 26.5252 20.1934 25.8175V10.8837C20.1911 10.176 19.6216 9.60289 18.9185 9.60059Z" fill="black"/>
<path opacity="0.2" d="M18.2229 10.3003H10.4556V27.8003H18.2229C18.9261 27.798 19.4956 27.2249 19.4978 26.5172V11.5834C19.4956 10.8757 18.9261 10.3026 18.2229 10.3003Z" fill="black"/>
<path opacity="0.2" d="M18.2229 10.3003H10.4556V26.4003H18.2229C18.9261 26.398 19.4956 25.8249 19.4978 25.1172V11.5834C19.4956 10.8757 18.9261 10.3026 18.2229 10.3003Z" fill="black"/>
<path opacity="0.2" d="M17.5273 10.3003H10.4556V26.4003H17.5273C18.2305 26.398 18.8 25.8249 18.8023 25.1172V11.5834C18.8 10.8757 18.2305 10.3026 17.5273 10.3003Z" fill="black"/>
<path d="M4.77496 10.3003H17.5274C18.2315 10.3003 18.8023 10.8748 18.8023 11.5834V24.4172C18.8023 25.1258 18.2315 25.7003 17.5274 25.7003H4.77496C4.07082 25.7003 3.5 25.1258 3.5 24.4172V11.5834C3.5 10.8748 4.07082 10.3003 4.77496 10.3003Z" fill="url(#paint0_linear_2501_2262)"/>
<path d="M7.44873 22.1705L10.1308 17.988L7.6734 13.8286H9.65018L10.9912 16.4886C11.115 16.7413 11.1999 16.9289 11.2458 17.0528H11.2632C11.3513 16.8512 11.444 16.6554 11.5414 16.4655L12.975 13.83H14.7897L12.2696 17.9649L14.8537 22.1705H12.9228L11.3738 19.2508C11.3008 19.1266 11.2389 18.9961 11.1888 18.8609H11.1658C11.1204 18.9934 11.0602 19.1202 10.9864 19.2389L9.39144 22.1705H7.44873Z" fill="white"/>
<path d="M32.1343 4H22.2803V11H33.4092V5.2831C33.4092 4.57446 32.8384 4 32.1343 4Z" fill="#33C481"/>
<path d="M22.2803 18H33.4092V25H22.2803V18Z" fill="#107C41"/>
</g>
<defs>
<linearGradient id="paint0_linear_2501_2262" x1="6.15832" y1="9.2977" x2="16.2396" y2="26.6473" gradientUnits="userSpaceOnUse">
<stop stop-color="#18884F"/>
<stop offset="0.5" stop-color="#117E43"/>
<stop offset="1" stop-color="#0B6631"/>
</linearGradient>
<clipPath id="clip0_2501_2262">
<rect width="29.9091" height="28" fill="white" transform="translate(3.5 4)"/>
</clipPath>
</defs>
</svg>
