<svg width="24" height="27" viewBox="0 0 24 27" fill="none" xmlns="http://www.w3.org/2000/svg">
<g opacity="0.4">
<path fill-rule="evenodd" clip-rule="evenodd" d="M18.7071 9.68679C18.7071 11.0699 19.039 11.8851 19.7695 12.8245C20.3231 13.5166 20.5 14.405 20.5 15.3689C20.5 16.3316 20.2128 17.2455 19.6373 17.9875C18.884 18.877 17.8215 19.4449 16.7372 19.5436C15.1659 19.6911 13.5937 19.8154 12.0005 19.8154C10.4063 19.8154 8.83505 19.741 7.26375 19.5436C6.17846 19.4449 5.11602 18.877 4.36367 17.9875C3.78822 17.2455 3.5 16.3316 3.5 15.3689C3.5 14.405 3.6779 13.5166 4.23049 12.8245C4.98384 11.8851 5.29392 11.0699 5.29392 9.68679V9.21763C5.29392 7.36539 5.71333 6.15422 6.577 4.96856C7.86106 3.23943 9.91935 2.20239 11.9558 2.20239H12.0452C14.1254 2.20239 16.2502 3.28934 17.5125 5.09278C18.3314 6.25404 18.7071 7.41419 18.7071 9.21763V9.68679ZM9.07367 22.0917C9.07367 21.5372 9.53582 21.2832 9.96318 21.1745C10.4631 21.058 13.5093 21.058 14.0092 21.1745C14.4365 21.2832 14.8987 21.5372 14.8987 22.0917C14.8738 22.6197 14.5926 23.0877 14.204 23.385C13.7001 23.8175 13.1087 24.0915 12.4906 24.1902C12.1487 24.239 11.8128 24.2401 11.4828 24.1902C10.8636 24.0915 10.2723 23.8175 9.76937 23.3839C9.37978 23.0877 9.09852 22.6197 9.07367 22.0917Z" fill="#030229"/>
</g>
</svg>
