<svg width="24" height="27" viewBox="0 0 24 27" fill="none" xmlns="http://www.w3.org/2000/svg">
<g opacity="0.4">
<path fill-rule="evenodd" clip-rule="evenodd" d="M7.81 2.20239H16.191C19.28 2.20239 21 4.1626 21 7.52139V18.8972C21 22.3111 19.28 24.2272 16.191 24.2272H7.81C4.77 24.2272 3 22.3111 3 18.8972V7.52139C3 4.1626 4.77 2.20239 7.81 2.20239ZM8.07999 7.33418V7.32317H11.069C11.5 7.32317 11.85 7.7086 11.85 8.18103C11.85 8.66668 11.5 9.05212 11.069 9.05212H8.07999C7.64899 9.05212 7.29999 8.66668 7.29999 8.19315C7.29999 7.71961 7.64899 7.33418 8.07999 7.33418ZM8.07999 14.0297H15.92C16.35 14.0297 16.7 13.6443 16.7 13.1708C16.7 12.6972 16.35 12.3107 15.92 12.3107H8.07999C7.64899 12.3107 7.29999 12.6972 7.29999 13.1708C7.29999 13.6443 7.64899 14.0297 8.07999 14.0297ZM8.07999 19.0624H15.92C16.319 19.0184 16.62 18.6428 16.62 18.2034C16.62 17.7519 16.319 17.3775 15.92 17.3335H8.07999C7.77999 17.3004 7.48999 17.4546 7.32999 17.7409C7.16999 18.0162 7.16999 18.3796 7.32999 18.666C7.48999 18.9413 7.77999 19.1065 8.07999 19.0624Z" fill="#030229"/>
</g>
</svg>
