<svg width="16" height="16" viewBox="0 0 16 16" fill="none" xmlns="http://www.w3.org/2000/svg">
<g clip-path="url(#clip0_2501_2448)">
<path d="M15.9915 8.14963C15.9915 7.49412 15.9371 7.01577 15.8193 6.51971H8.15936V9.47835H12.6556C12.5649 10.2136 12.0754 11.3209 10.9876 12.065L10.9724 12.164L13.3943 13.9975L13.5621 14.0138C15.1031 12.6231 15.9915 10.5768 15.9915 8.14963Z" fill="#4285F4"/>
<path d="M8.15956 15.9449C10.3623 15.9449 12.2116 15.2362 13.5623 14.0138L10.9878 12.0649C10.2989 12.5344 9.37424 12.8621 8.15956 12.8621C6.00211 12.8621 4.171 11.4714 3.51826 9.54917L3.42258 9.55711L0.904229 11.4616L0.871295 11.5511C2.2129 14.1554 4.96866 15.9449 8.15956 15.9449Z" fill="#34A853"/>
<path d="M3.5182 9.5493C3.34596 9.05324 3.24629 8.5217 3.24629 7.97252C3.24629 7.42327 3.34596 6.89179 3.50913 6.39573L3.50457 6.29008L0.954663 4.35495L0.871234 4.39373C0.318295 5.47445 0.00101668 6.68807 0.00101668 7.97252C0.00101668 9.25697 0.318295 10.4705 0.871234 11.5512L3.5182 9.5493Z" fill="#FBBC05"/>
<path d="M8.15956 3.08267C9.69152 3.08267 10.7249 3.72932 11.3142 4.26971L13.6167 2.07284C12.2026 0.788392 10.3623 0 8.15956 0C4.96866 0 2.2129 1.78936 0.871295 4.39368L3.50919 6.39569C4.171 4.47344 6.00211 3.08267 8.15956 3.08267Z" fill="#EB4335"/>
</g>
<defs>
<clipPath id="clip0_2501_2448">
<rect width="15.3686" height="15.3686" fill="white" transform="scale(1.04108)"/>
</clipPath>
</defs>
</svg>
