<svg width="24" height="27" viewBox="0 0 24 27" fill="none" xmlns="http://www.w3.org/2000/svg">
<g opacity="0.4">
<path fill-rule="evenodd" clip-rule="evenodd" d="M20.4023 14.955C20.76 15.1643 21.036 15.4946 21.2301 15.825C21.6083 16.5078 21.5776 17.3447 21.2097 18.0825L20.4943 19.404C20.1162 20.1088 19.411 20.5493 18.6855 20.5493C18.3278 20.5493 17.9292 20.4392 17.6022 20.219C17.3365 20.0317 17.0299 19.9657 16.7029 19.9657C15.6911 19.9657 14.8429 20.8797 14.8122 21.9699C14.8122 23.2364 13.872 24.2275 12.6968 24.2275H11.3069C10.1215 24.2275 9.18125 23.2364 9.18125 21.9699C9.16081 20.8797 8.31259 19.9657 7.30085 19.9657C6.96361 19.9657 6.65702 20.0317 6.40153 20.219C6.0745 20.4392 5.66572 20.5493 5.31825 20.5493C4.58245 20.5493 3.87729 20.1088 3.49917 19.404L2.79402 18.0825C2.4159 17.3667 2.39546 16.5078 2.77358 15.825C2.93709 15.4946 3.24368 15.1643 3.59115 14.955C3.87729 14.8008 4.06125 14.5476 4.23498 14.2502C4.74596 13.3032 4.43937 12.0587 3.57071 11.4971C2.55897 10.8694 2.23194 9.47083 2.81446 8.3806L3.49917 7.08114C4.09191 5.99091 5.35913 5.60547 6.38109 6.24419C7.27019 6.77279 8.425 6.42039 8.9462 5.48434C9.10972 5.17599 9.20169 4.84562 9.18125 4.51524C9.16081 4.08576 9.27323 3.6783 9.4674 3.34793C9.84553 2.66516 10.5302 2.22466 11.2763 2.20264H12.7172C13.4735 2.20264 14.1582 2.66516 14.5363 3.34793C14.7203 3.6783 14.8429 4.08576 14.8122 4.51524C14.7918 4.84562 14.8838 5.17599 15.0473 5.48434C15.5685 6.42039 16.7233 6.77279 17.6226 6.24419C18.6344 5.60547 19.9118 5.99091 20.4943 7.08114L21.179 8.3806C21.7718 9.47083 21.4447 10.8694 20.4228 11.4971C19.5541 12.0587 19.2475 13.3032 19.7687 14.2502C19.9322 14.5476 20.1162 14.8008 20.4023 14.955ZM9.10971 13.2261C9.10971 14.955 10.4076 16.3316 12.0121 16.3316C13.6165 16.3316 14.8838 14.955 14.8838 13.2261C14.8838 11.4971 13.6165 10.1096 12.0121 10.1096C10.4076 10.1096 9.10971 11.4971 9.10971 13.2261Z" fill="#030229"/>
</g>
</svg>
