<svg width="13" height="16" viewBox="0 0 13 16" fill="none" xmlns="http://www.w3.org/2000/svg">
<path d="M7.17287 1.37719C8.22063 0.00668146 9.67726 0 9.67726 0C9.67726 0 9.89393 1.28851 8.85304 2.52975C7.74162 3.85512 6.47835 3.63825 6.47835 3.63825C6.47835 3.63825 6.24114 2.59589 7.17287 1.37719ZM6.61161 4.54084C7.15063 4.54084 8.15102 3.80552 9.45317 3.80552C11.6946 3.80552 12.5764 5.38835 12.5764 5.38835C12.5764 5.38835 10.8518 6.26341 10.8518 8.38671C10.8518 10.782 13.0002 11.6075 13.0002 11.6075C13.0002 11.6075 11.4984 15.8024 9.46986 15.8024C8.53818 15.8024 7.81385 15.1793 6.83219 15.1793C5.83179 15.1793 4.83905 15.8256 4.19247 15.8256C2.34014 15.8257 0 11.8464 0 8.64763C0 5.50053 1.98077 3.84961 3.83866 3.84961C5.04645 3.84961 5.98371 4.54084 6.61161 4.54084Z" fill="#999999"/>
</svg>
